<mxfile host="app.diagrams.net" agent="Mozilla/5.0 (Windows NT 10.0; Win64; x64) AppleWebKit/537.36 (KHTML, like Gecko) Chrome/131.0.0.0 Safari/537.36" version="24.9.2">
  <diagram name="페이지-1" id="x3CDRDTqpfboEJPPk2nD">
    <mxGraphModel dx="1221" dy="2017" grid="0" gridSize="10" guides="1" tooltips="1" connect="1" arrows="1" fold="1" page="0" pageScale="1" pageWidth="827" pageHeight="1169" background="#ffffff" math="0" shadow="0">
      <root>
        <mxCell id="0" />
        <mxCell id="1" parent="0" />
        <mxCell id="Gps59GTh8-qC3CWiLmwc-34" value="Server" style="shape=umlActor;verticalLabelPosition=bottom;verticalAlign=top;html=1;outlineConnect=0;" vertex="1" parent="1">
          <mxGeometry x="205" y="-1100" width="30" height="60" as="geometry" />
        </mxCell>
        <mxCell id="Gps59GTh8-qC3CWiLmwc-35" value="" style="rounded=0;whiteSpace=wrap;html=1;" vertex="1" parent="1">
          <mxGeometry x="80" y="-1000" width="600" height="465" as="geometry" />
        </mxCell>
        <mxCell id="Gps59GTh8-qC3CWiLmwc-36" value="" style="rounded=0;whiteSpace=wrap;html=1;" vertex="1" parent="1">
          <mxGeometry x="87" y="-864" width="557.5" height="315" as="geometry" />
        </mxCell>
        <mxCell id="Gps59GTh8-qC3CWiLmwc-37" value="" style="rounded=0;whiteSpace=wrap;html=1;" vertex="1" parent="1">
          <mxGeometry x="215" y="-970" width="10" height="402" as="geometry" />
        </mxCell>
        <mxCell id="Gps59GTh8-qC3CWiLmwc-38" value="" style="rounded=0;whiteSpace=wrap;html=1;" vertex="1" parent="1">
          <mxGeometry x="375" y="-884" width="10" height="318" as="geometry" />
        </mxCell>
        <mxCell id="Gps59GTh8-qC3CWiLmwc-39" value="" style="rounded=0;whiteSpace=wrap;html=1;" vertex="1" parent="1">
          <mxGeometry x="560" y="-940" width="10" height="372" as="geometry" />
        </mxCell>
        <mxCell id="Gps59GTh8-qC3CWiLmwc-40" value="&lt;span style=&quot;font-size: 14px;&quot;&gt;&lt;b&gt;AI토큰 확인&lt;/b&gt;&lt;/span&gt;" style="rounded=0;whiteSpace=wrap;html=1;" vertex="1" parent="1">
          <mxGeometry x="335" y="-1070" width="90" height="30" as="geometry" />
        </mxCell>
        <mxCell id="Gps59GTh8-qC3CWiLmwc-41" value="" style="endArrow=none;dashed=1;html=1;rounded=0;entryX=0.5;entryY=1;entryDx=0;entryDy=0;exitX=0.5;exitY=0;exitDx=0;exitDy=0;" edge="1" parent="1" source="Gps59GTh8-qC3CWiLmwc-38" target="Gps59GTh8-qC3CWiLmwc-40">
          <mxGeometry width="50" height="50" relative="1" as="geometry">
            <mxPoint x="550" y="-800" as="sourcePoint" />
            <mxPoint x="600" y="-850" as="targetPoint" />
          </mxGeometry>
        </mxCell>
        <mxCell id="Gps59GTh8-qC3CWiLmwc-42" value="" style="endArrow=none;dashed=1;html=1;rounded=0;" edge="1" parent="1" source="Gps59GTh8-qC3CWiLmwc-37">
          <mxGeometry width="50" height="50" relative="1" as="geometry">
            <mxPoint x="550" y="-800" as="sourcePoint" />
            <mxPoint x="220" y="-1020" as="targetPoint" />
          </mxGeometry>
        </mxCell>
        <mxCell id="Gps59GTh8-qC3CWiLmwc-43" value="&lt;span style=&quot;font-size: 14px;&quot;&gt;&lt;b&gt;AI모델&lt;/b&gt;&lt;/span&gt;" style="rounded=0;whiteSpace=wrap;html=1;" vertex="1" parent="1">
          <mxGeometry x="510" y="-1070" width="110" height="30" as="geometry" />
        </mxCell>
        <mxCell id="Gps59GTh8-qC3CWiLmwc-44" value="" style="endArrow=none;dashed=1;html=1;rounded=0;entryX=0.5;entryY=1;entryDx=0;entryDy=0;exitX=0.5;exitY=0;exitDx=0;exitDy=0;" edge="1" parent="1" source="Gps59GTh8-qC3CWiLmwc-39" target="Gps59GTh8-qC3CWiLmwc-43">
          <mxGeometry width="50" height="50" relative="1" as="geometry">
            <mxPoint x="550" y="-800" as="sourcePoint" />
            <mxPoint x="600" y="-850" as="targetPoint" />
          </mxGeometry>
        </mxCell>
        <mxCell id="Gps59GTh8-qC3CWiLmwc-45" value="" style="endArrow=classic;html=1;rounded=0;exitX=1.2;exitY=0.152;exitDx=0;exitDy=0;exitPerimeter=0;" edge="1" parent="1">
          <mxGeometry width="50" height="50" relative="1" as="geometry">
            <mxPoint x="228" y="-919.52" as="sourcePoint" />
            <mxPoint x="554" y="-922" as="targetPoint" />
          </mxGeometry>
        </mxCell>
        <mxCell id="Gps59GTh8-qC3CWiLmwc-46" value="&lt;span style=&quot;font-size: 14px;&quot;&gt;&lt;b&gt;토큰 사용량 요청&lt;/b&gt;&lt;/span&gt;" style="text;html=1;align=center;verticalAlign=middle;whiteSpace=wrap;rounded=0;" vertex="1" parent="1">
          <mxGeometry x="231" y="-947" width="144" height="30" as="geometry" />
        </mxCell>
        <mxCell id="Gps59GTh8-qC3CWiLmwc-47" value="" style="endArrow=classic;html=1;rounded=0;exitX=-0.112;exitY=0.667;exitDx=0;exitDy=0;exitPerimeter=0;entryX=1.039;entryY=0.618;entryDx=0;entryDy=0;entryPerimeter=0;dashed=1;" edge="1" parent="1">
          <mxGeometry width="50" height="50" relative="1" as="geometry">
            <mxPoint x="559.7500000000001" y="-831" as="sourcePoint" />
            <mxPoint x="386.2600000000001" y="-830.9100000000001" as="targetPoint" />
          </mxGeometry>
        </mxCell>
        <mxCell id="Gps59GTh8-qC3CWiLmwc-48" value="&lt;b&gt;&lt;font style=&quot;font-size: 14px;&quot;&gt;Reply Data&lt;/font&gt;&lt;/b&gt;&lt;div&gt;&lt;b&gt;&lt;font style=&quot;font-size: 14px;&quot;&gt;&lt;br&gt;&lt;/font&gt;&lt;/b&gt;&lt;/div&gt;&lt;div&gt;&lt;font style=&quot;font-size: 14px;&quot;&gt;&lt;b&gt;(토큰 사용량, 토큰잔여량)&lt;/b&gt;&lt;/font&gt;&lt;/div&gt;" style="text;html=1;align=center;verticalAlign=middle;whiteSpace=wrap;rounded=0;" vertex="1" parent="1">
          <mxGeometry x="408.01" y="-838" width="130" height="30" as="geometry" />
        </mxCell>
        <mxCell id="Gps59GTh8-qC3CWiLmwc-49" value="" style="endArrow=classic;html=1;rounded=0;exitX=-0.112;exitY=0.667;exitDx=0;exitDy=0;exitPerimeter=0;entryX=1.054;entryY=0.966;entryDx=0;entryDy=0;entryPerimeter=0;dashed=1;" edge="1" parent="1">
          <mxGeometry width="50" height="50" relative="1" as="geometry">
            <mxPoint x="370.5" y="-793" as="sourcePoint" />
            <mxPoint x="221.5" y="-793" as="targetPoint" />
          </mxGeometry>
        </mxCell>
        <mxCell id="Gps59GTh8-qC3CWiLmwc-50" value="&lt;span style=&quot;font-size: 14px;&quot;&gt;&lt;b&gt;토큰 사용량 저장&lt;/b&gt;&lt;/span&gt;" style="text;html=1;align=center;verticalAlign=middle;whiteSpace=wrap;rounded=0;" vertex="1" parent="1">
          <mxGeometry x="235" y="-825" width="130" height="30" as="geometry" />
        </mxCell>
        <mxCell id="Gps59GTh8-qC3CWiLmwc-51" value="OPT&lt;span style=&quot;color: rgba(0, 0, 0, 0); font-family: monospace; font-size: 0px; text-align: start; text-wrap: nowrap;&quot;&gt;%3CmxGraphModel%3E%3Croot%3E%3CmxCell%20id%3D%220%22%2F%3E%3CmxCell%20id%3D%221%22%20parent%3D%220%22%2F%3E%3CmxCell%20id%3D%222%22%20value%3D%22%ED%9A%8C%EC%9B%90%EA%B0%80%EC%9E%85%20%EC%9A%94%EC%B2%AD%26lt%3Bdiv%26gt%3B(ID%2C%20%EB%B9%84%EB%B0%80%EB%B2%88%ED%98%B8%2C%20%EB%8B%89%EB%84%A4%EC%9E%84%2C%20%EC%9D%B4%EB%A6%84%2C%20%EC%84%B1%EB%B3%84%2C%20%EC%9D%B4%EB%A9%94%EC%9D%BC)%26lt%3B%2Fdiv%26gt%3B%22%20style%3D%22text%3Bhtml%3D1%3Balign%3Dcenter%3BverticalAlign%3Dmiddle%3BwhiteSpace%3Dwrap%3Brounded%3D0%3B%22%20vertex%3D%221%22%20parent%3D%221%22%3E%3CmxGeometry%20x%3D%22235%22%20y%3D%22-820%22%20width%3D%22125%22%20height%3D%2230%22%20as%3D%22geometry%22%2F%3E%3C%2FmxCell%3E%3C%2Froot%3E%3C%2FmxGraphModel%3E&lt;/span&gt;" style="shape=delay;whiteSpace=wrap;html=1;" vertex="1" parent="1">
          <mxGeometry x="80" y="-1000" width="80" height="30" as="geometry" />
        </mxCell>
        <mxCell id="Gps59GTh8-qC3CWiLmwc-52" value="ALT" style="shape=delay;whiteSpace=wrap;html=1;" vertex="1" parent="1">
          <mxGeometry x="87" y="-862" width="80" height="30" as="geometry" />
        </mxCell>
        <mxCell id="Gps59GTh8-qC3CWiLmwc-53" value="&lt;b style=&quot;&quot;&gt;&lt;font style=&quot;font-size: 14px;&quot;&gt;[토큰 확인 = YES]&lt;/font&gt;&lt;/b&gt;" style="text;html=1;align=center;verticalAlign=middle;whiteSpace=wrap;rounded=0;fontColor=#3333FF;" vertex="1" parent="1">
          <mxGeometry x="215" y="-859" width="145" height="30" as="geometry" />
        </mxCell>
        <mxCell id="Gps59GTh8-qC3CWiLmwc-54" value="" style="endArrow=none;dashed=1;html=1;rounded=0;" edge="1" parent="1">
          <mxGeometry width="50" height="50" relative="1" as="geometry">
            <mxPoint x="631" y="-736" as="sourcePoint" />
            <mxPoint x="121" y="-736" as="targetPoint" />
          </mxGeometry>
        </mxCell>
        <mxCell id="Gps59GTh8-qC3CWiLmwc-78" value="&lt;b&gt;&lt;font style=&quot;font-size: 14px;&quot;&gt;Return Data&lt;/font&gt;&lt;/b&gt;&lt;div&gt;&lt;b&gt;&lt;font style=&quot;font-size: 14px;&quot;&gt;(result = &quot;실패&quot;)&lt;/font&gt;&lt;/b&gt;&lt;/div&gt;" style="text;html=1;align=center;verticalAlign=middle;whiteSpace=wrap;rounded=0;" vertex="1" parent="1">
          <mxGeometry x="416" y="-651" width="123.99" height="30" as="geometry" />
        </mxCell>
        <mxCell id="Gps59GTh8-qC3CWiLmwc-79" value="" style="endArrow=classic;html=1;rounded=0;dashed=1;entryX=0.857;entryY=0.531;entryDx=0;entryDy=0;entryPerimeter=0;" edge="1" parent="1">
          <mxGeometry width="50" height="50" relative="1" as="geometry">
            <mxPoint x="555" y="-667" as="sourcePoint" />
            <mxPoint x="383" y="-667" as="targetPoint" />
          </mxGeometry>
        </mxCell>
        <mxCell id="Gps59GTh8-qC3CWiLmwc-80" value="" style="endArrow=classic;html=1;rounded=0;dashed=1;entryX=0.857;entryY=0.531;entryDx=0;entryDy=0;entryPerimeter=0;exitX=-0.067;exitY=0.864;exitDx=0;exitDy=0;exitPerimeter=0;" edge="1" parent="1">
          <mxGeometry width="50" height="50" relative="1" as="geometry">
            <mxPoint x="372.83" y="-642.0040000000001" as="sourcePoint" />
            <mxPoint x="225" y="-641.74" as="targetPoint" />
          </mxGeometry>
        </mxCell>
        <mxCell id="Gps59GTh8-qC3CWiLmwc-81" value="&lt;b style=&quot;&quot;&gt;&lt;font style=&quot;font-size: 14px;&quot;&gt;[이미지 생성 = NO]&lt;/font&gt;&lt;/b&gt;" style="text;html=1;align=center;verticalAlign=middle;whiteSpace=wrap;rounded=0;fontColor=#3333FF;" vertex="1" parent="1">
          <mxGeometry x="220" y="-726" width="145" height="30" as="geometry" />
        </mxCell>
        <mxCell id="Gps59GTh8-qC3CWiLmwc-82" value="&lt;span style=&quot;font-size: 14px;&quot;&gt;&lt;b&gt;에러메세지&lt;/b&gt;&lt;/span&gt;" style="text;html=1;align=center;verticalAlign=middle;whiteSpace=wrap;rounded=0;" vertex="1" parent="1">
          <mxGeometry x="238.01" y="-637" width="123.99" height="30" as="geometry" />
        </mxCell>
      </root>
    </mxGraphModel>
  </diagram>
</mxfile>
